<svg xmlns="http://www.w3.org/2000/svg" viewBox="0 0 280.028 280.028"><path d="M17.502 0h245.024c9.661 0 17.502 7.832 17.502 17.502v245.024c0 9.661-7.841 17.502-17.502 17.502H17.502C7.841 280.027 0 272.187 0 262.526V17.502C0 7.832 7.841 0 17.502 0z" fill="#e4e7e7"/><path d="M39.379 26.253c7.254 0 13.126 5.872 13.126 13.126s-5.872 13.126-13.126 13.126c-7.246 0-13.126-5.881-13.126-13.126 0-7.255 5.88-13.126 13.126-13.126z" fill="#bf392c"/><path d="M83.133 26.253c7.254 0 13.126 5.872 13.126 13.126s-5.872 13.126-13.126 13.126c-7.246 0-13.126-5.881-13.126-13.126 0-7.255 5.88-13.126 13.126-13.126z" fill="#e37948"/><path d="M126.887 26.253c7.254 0 13.126 5.872 13.126 13.126s-5.872 13.126-13.126 13.126c-7.246 0-13.126-5.881-13.126-13.126 0-7.255 5.881-13.126 13.126-13.126z" fill="#3db39e"/><path d="M26.253 78.758h227.522v175.017H26.253V78.758z" fill="#fff"/><path d="M157.515 105.01v70.007h70.007V105.01h-70.007zm-17.501 0H52.505v26.253h87.509V105.01zm0 43.755H52.505v26.253h87.509v-26.253zm-87.509 78.757h175.017v-35.003H52.505v35.003z" fill="#ccd0d2"/></svg>
