<svg xmlns="http://www.w3.org/2000/svg" viewBox="0 0 100 100"><path fill="#F7D4E0" d="M50 0c27.614 0 50 22.387 50 50 0 27.614-22.386 50-50 50S0 77.614 0 50C0 22.387 22.386 0 50 0z"/><path fill="#ca6199" d="M50 100c13.299 0 25.374-5.201 34.331-13.669C92.799 77.374 98 65.299 98 52a49.775 49.775 0 00-10-30H23a5 5 0 00-5 5v61.413C26.671 95.645 37.826 100 50 100z"/><path fill="#fff" d="M25 20a5 5 0 00-5 5v65.001A49.779 49.779 0 0050 100c27.614 0 50-22.386 50-50a49.775 49.775 0 00-10-30H25z"/><path fill="#F3F3F3" d="M100 50c0-3.781-.434-7.459-1.229-11H20v51.001A49.779 49.779 0 0050 100c27.614 0 50-22.386 50-50z"/><path fill="#E2574C" d="M29.5 26a3.5 3.5 0 110 7 3.5 3.5 0 110-7z"/><path fill="#EFC75E" d="M39.5 26a3.5 3.5 0 110 7 3.5 3.5 0 110-7z"/><path fill="#3DB39E" d="M49.5 26a3.5 3.5 0 110 7 3.5 3.5 0 110-7z"/><path fill="#E4E7E7" d="M93.869 26H60a2 2 0 00-2 2v3a2 2 0 002 2h37.03a49.645 49.645 0 00-3.161-7z"/><path fill="#FD7AC0" d="M30 84h13a1 1 0 100-2H30a1 1 0 100 2zm47 1a1 1 0 00-1 1v1a1 1 0 001 1h5.477a50.686 50.686 0 003.218-3H77zm-47 3h16a1 1 0 100-2H30a1 1 0 100 2zm-2-39v13a2 2 0 002 2h67.999A49.997 49.997 0 00100 50a50.52 50.52 0 00-.098-3H30a2 2 0 00-2 2z"/><circle fill="#dadada" cx="83.5" cy="76.5" r="4.5"/><path fill="#dadada" d="M56 86v1a1 1 0 001 1h13a1 1 0 001-1v-1a1 1 0 00-1-1H57a1 1 0 00-1 1zm-7-8H30a1 1 0 100 2h19a1 1 0 100-2z"/><circle fill="#dadada" cx="63.5" cy="76.5" r="4.5"/><path fill="#dadada" d="M30 76h19a1 1 0 001-1v-2a1 1 0 00-1-1H30a1 1 0 00-1 1v2a1 1 0 001 1z"/></svg>
