<svg xmlns="http://www.w3.org/2000/svg" viewBox="0 0 512 512"><circle cx="256" cy="256" r="256" fill="#6b7f9e"/><path d="M89.646 61.404h382.451c6.013 0 10.932 4.92 10.932 10.932v302.281c-95.658 182.389-358.218 182.389-453.876 0V72.336c0-6.013 4.92-10.932 10.932-10.932h49.561z" fill="#fff"/><path d="M40.085 61.404h432.011c6.013 0 10.932 4.92 10.932 10.932v21.865H29.153V72.336c0-6.013 4.92-10.932 10.932-10.932z" fill="#6c7678"/><path d="M231.22 72.883h219.194a2.877 2.877 0 012.915 2.915v5.466a2.877 2.877 0 01-2.915 2.915H231.22a2.877 2.877 0 01-2.915-2.915v-5.466a2.877 2.877 0 012.915-2.915z" fill="#fff"/><circle cx="50.836" cy="77.073" r="6.377" fill="#83cf8f"/><circle cx="75.616" cy="77.073" r="6.377" fill="#ffe356"/><circle cx="100.578" cy="77.073" r="6.377" fill="#ff7069"/><circle cx="113.697" cy="319.772" r="26.967" fill="#83cf8f"/><circle cx="256" cy="319.772" r="26.967" fill="#ffe356"/><circle cx="398.303" cy="319.772" r="26.967" fill="#ff7069"/><g fill="#e4e7ed"><path d="M75.069 371.337h51.929v5.466H75.069v-5.466zm0-17.128h77.256v5.466H75.069v-5.466zM217.372 371.337h51.929v5.466h-51.929v-5.466zm0-17.128h77.256v5.466h-77.256v-5.466zM359.675 371.337h51.929v5.466h-51.929v-5.466zm0-17.128h77.256v5.466h-77.256v-5.466z"/></g><g fill="#ecf0f1"><path d="M75.069 396.663h99.485v77.984h-51.747c-17.31-10.568-33.344-23.14-47.738-37.535v-40.449zm361.862 40.45c-14.394 14.212-30.246 26.967-47.738 37.535h-51.747v-77.984h99.485v40.449zm-230.673 37.535v-77.984h99.485v77.984h-99.485zM58.488 283.331h395.206v1.822H58.488z"/></g><path d="M233.589 179.656c.364-5.102.547-10.568.364-16.763 3.28.911 7.106 1.275 11.843 1.275h15.306c4.737 0 8.746-.364 12.026-1.458-.182 6.195-.182 11.661.364 16.763h-39.903v.183z" fill="#ffe45e"/><path d="M214.457 248.165c0 1.822-2.186 3.28-4.92 2.915-2.733-.182-4.92-2.004-4.92-4.009 0-.729.364-1.458.911-1.822l27.695-65.23v-.547h40.268v.547l27.695 65.23c.547.547.911 1.093.911 1.822 0 1.822-2.186 3.644-4.92 4.009-2.733.182-4.92-1.093-4.92-2.915 0-1.275 0-.911 0 0 0 1.822-2.186 3.644-4.92 4.009-2.733.182-4.92-1.093-4.92-2.915 0-1.275 0-.911 0 0 0 1.822-2.186 3.644-4.92 4.009-2.733.182-4.92-1.093-4.92-2.915 0-1.275 0-1.093 0 0 0 1.822-2.186 3.644-4.92 4.009-2.733.182-4.92-1.093-4.92-2.915 0-1.275 0-1.093 0 0 0 1.822-2.186 3.644-4.92 4.009-2.733.182-4.92-1.093-4.92-2.915 0-1.275 0-1.093 0 0 0 .364-.182.911-.364 1.275-.182-.364-.364-.729-.364-1.275 0-1.093 0-1.275 0 0 0 1.822-2.186 3.28-4.92 2.915-2.733-.182-4.92-2.004-4.92-4.009 0-1.093 0-1.275 0 0 0 1.822-2.186 3.28-4.92 2.915-2.733-.182-4.92-2.004-4.92-4.009 0-1.093 0-1.275 0 0 0 1.822-2.186 3.28-4.92 2.915-2.733-.182-4.92-2.004-4.92-4.009 0-.911 0-1.275 0 0 0 1.822-2.186 3.28-4.92 2.915-2.733-.182-4.92-2.004-4.92-4.009 0-.911 0-1.275 0 0h1.648z" fill="#83cf8f"/><path d="M253.449 164.168h-6.742c-13.119 0-19.132-2.369-20.043-8.746-.729-5.466 1.093-11.479 4.555-16.399l1.093-17.127h2.915v17.31c4.191 4.373 11.297 6.559 18.403 6.377 7.288.182 14.577-2.004 18.585-6.742v-16.945h2.915l1.093 17.674c3.098 4.737 4.92 10.568 4.191 15.852-.911 6.377-6.924 8.746-20.043 8.746h-6.922z" fill="#ff7069"/><path d="M207.533 240.877v.729c0 .911-.547 1.822-1.275 2.369l1.275-2.915v-.183zm66.141-57.577c.547 0 1.093.182 1.64.547l1.093 2.369c-.182 1.275-1.275 2.369-2.551 2.369-1.458 0-2.551-1.093-2.551-2.551 0-1.458 1.093-2.551 2.551-2.551l-.182-.183zm-11.479 0c1.458 0 2.551 1.093 2.551 2.551 0 1.458-1.093 2.551-2.551 2.551-1.458 0-2.551-1.093-2.551-2.551 0-1.458 1.093-2.551 2.551-2.551zm-11.479 0c1.458 0 2.551 1.093 2.551 2.551 0 1.458-1.093 2.551-2.551 2.551-1.458 0-2.551-1.093-2.551-2.551 0-1.458 1.093-2.551 2.551-2.551zm-11.479 0c1.458 0 2.551 1.093 2.551 2.551 0 1.458-1.093 2.551-2.551 2.551-1.458 0-2.551-1.093-2.551-2.551 0-1.458 1.093-2.551 2.551-2.551zm41.725 14.03c-.547.364-1.093.729-1.822.729-1.458 0-2.551-1.093-2.551-2.551s1.093-2.551 2.551-2.551l2.004 4.555-.182-.182zm-13.301-4.556c1.458 0 2.551 1.093 2.551 2.551 0 1.458-1.093 2.551-2.551 2.551-1.458 0-2.551-1.093-2.551-2.551 0-1.457 1.094-2.551 2.551-2.551zm-11.479 0c1.458 0 2.551 1.093 2.551 2.551 0 1.458-1.093 2.551-2.551 2.551-1.458 0-2.551-1.093-2.551-2.551 0-1.457 1.094-2.551 2.551-2.551zm-11.479 0c1.458 0 2.551 1.093 2.551 2.551 0 1.458-1.093 2.551-2.551 2.551-1.458 0-2.551-1.093-2.551-2.551 0-1.457 1.094-2.551 2.551-2.551zm-11.479 0c1.458 0 2.551 1.093 2.551 2.551 0 1.458-1.093 2.551-2.551 2.551-1.458 0-2.551-1.093-2.551-2.551 0-1.457 1.094-2.551 2.551-2.551zm51.747 14.212c-1.458 0-2.551-1.093-2.551-2.551 0-.729.364-1.458.729-1.822l1.822 4.555v-.182zm-11.479-5.284c1.458 0 2.551 1.093 2.551 2.551 0 1.458-1.093 2.551-2.551 2.551s-2.551-1.093-2.551-2.551c0-1.457 1.093-2.551 2.551-2.551zm-11.479 0c1.458 0 2.551 1.093 2.551 2.551 0 1.458-1.093 2.551-2.551 2.551s-2.551-1.093-2.551-2.551c0-1.457 1.093-2.551 2.551-2.551zm-11.479 0c1.458 0 2.551 1.093 2.551 2.551 0 1.458-1.093 2.551-2.551 2.551-1.458 0-2.551-1.093-2.551-2.551 0-1.457 1.093-2.551 2.551-2.551zm-11.479 0c1.458 0 2.551 1.093 2.551 2.551 0 1.458-1.093 2.551-2.551 2.551-1.458 0-2.551-1.093-2.551-2.551 0-1.457 1.093-2.551 2.551-2.551zm-11.479 0c1.458 0 2.551 1.093 2.551 2.551 0 1.458-1.093 2.551-2.551 2.551-1.458 0-2.551-1.093-2.551-2.551 0-1.457 1.093-2.551 2.551-2.551zm61.039 14.213c-.547-.547-.911-1.275-.911-2.004v-.182l.911 2.186zm-9.839-4.738c1.458 0 2.551 1.093 2.551 2.551 0 1.458-1.093 2.551-2.551 2.551-1.458 0-2.551-1.093-2.551-2.551 0-1.458 1.093-2.551 2.551-2.551zm-11.479 0c1.458 0 2.551 1.093 2.551 2.551 0 1.458-1.093 2.551-2.551 2.551-1.458 0-2.551-1.093-2.551-2.551 0-1.458 1.093-2.551 2.551-2.551zm-11.479 0c1.458 0 2.551 1.093 2.551 2.551 0 1.458-1.093 2.551-2.551 2.551s-2.551-1.093-2.551-2.551c0-1.458 1.093-2.551 2.551-2.551zm-11.479 0c1.458 0 2.551 1.093 2.551 2.551 0 1.458-1.093 2.551-2.551 2.551s-2.551-1.093-2.551-2.551c0-1.458 1.093-2.551 2.551-2.551zm-11.479 0c1.458 0 2.551 1.093 2.551 2.551 0 1.458-1.093 2.551-2.551 2.551s-2.551-1.093-2.551-2.551c0-1.458 1.093-2.551 2.551-2.551zm-11.479 0c1.458 0 2.551 1.093 2.551 2.551 0 1.458-1.093 2.551-2.551 2.551s-2.551-1.093-2.551-2.551c0-1.458 1.093-2.551 2.551-2.551zm63.225 8.928c1.458 0 2.551 1.093 2.551 2.551 0 1.458-1.093 2.551-2.551 2.551-1.458 0-2.551-1.093-2.551-2.551.001-1.457 1.094-2.551 2.551-2.551zm-11.479 0c1.458 0 2.551 1.093 2.551 2.551 0 1.458-1.093 2.551-2.551 2.551-1.458 0-2.551-1.093-2.551-2.551.001-1.457 1.094-2.551 2.551-2.551zm-11.479 0c1.458 0 2.551 1.093 2.551 2.551 0 1.458-1.093 2.551-2.551 2.551-1.458 0-2.551-1.093-2.551-2.551.001-1.457 1.094-2.551 2.551-2.551zm-11.479 0c1.458 0 2.551 1.093 2.551 2.551 0 1.458-1.093 2.551-2.551 2.551-1.458 0-2.551-1.093-2.551-2.551 0-1.457 1.094-2.551 2.551-2.551zm-11.479 0c1.458 0 2.551 1.093 2.551 2.551 0 1.458-1.093 2.551-2.551 2.551-1.458 0-2.551-1.093-2.551-2.551.001-1.457 1.094-2.551 2.551-2.551zm-11.479 0c1.458 0 2.551 1.093 2.551 2.551 0 1.458-1.093 2.551-2.551 2.551-1.458 0-2.551-1.093-2.551-2.551.001-1.457 1.094-2.551 2.551-2.551zm-11.479 0c1.458 0 2.551 1.093 2.551 2.551 0 1.458-1.093 2.551-2.551 2.551-.729 0-1.458-.364-2.004-.911l1.822-4.373h.182v.182zm74.158 9.657c1.458 0 2.551 1.093 2.551 2.551 0 1.458-1.093 2.551-2.551 2.551-1.458 0-2.551-1.093-2.551-2.551.001-1.457 1.094-2.551 2.551-2.551zm-11.479 0c1.458 0 2.551 1.093 2.551 2.551 0 1.458-1.093 2.551-2.551 2.551-1.458 0-2.551-1.093-2.551-2.551.001-1.457 1.094-2.551 2.551-2.551zm-11.479 0c1.458 0 2.551 1.093 2.551 2.551 0 1.458-1.093 2.551-2.551 2.551-1.458 0-2.551-1.093-2.551-2.551.001-1.457 1.094-2.551 2.551-2.551zm-11.479 0c1.458 0 2.551 1.093 2.551 2.551 0 1.458-1.093 2.551-2.551 2.551s-2.551-1.093-2.551-2.551c0-1.457 1.094-2.551 2.551-2.551zm-11.479 0c1.458 0 2.551 1.093 2.551 2.551 0 1.458-1.093 2.551-2.551 2.551s-2.551-1.093-2.551-2.551c0-1.457 1.094-2.551 2.551-2.551zm-11.479 0c1.458 0 2.551 1.093 2.551 2.551 0 1.458-1.093 2.551-2.551 2.551s-2.551-1.093-2.551-2.551c0-1.457 1.094-2.551 2.551-2.551zm-11.479 0c1.458 0 2.551 1.093 2.551 2.551 0 1.458-1.093 2.551-2.551 2.551s-2.551-1.093-2.551-2.551c0-1.457 1.094-2.551 2.551-2.551zm-10.021.365c.729.547 1.093 1.275 1.093 2.186 0 1.458-1.093 2.551-2.551 2.551h-.547l2.005-4.737zm84.544 8.563c1.458 0 2.551 1.093 2.551 2.551 0 1.458-1.093 2.551-2.551 2.551s-2.551-1.093-2.551-2.551c0-1.457 1.093-2.551 2.551-2.551zm-11.479 0c1.458 0 2.551 1.093 2.551 2.551 0 1.458-1.093 2.551-2.551 2.551s-2.551-1.093-2.551-2.551c0-1.457 1.093-2.551 2.551-2.551zm-11.479 0c1.458 0 2.551 1.093 2.551 2.551 0 1.458-1.093 2.551-2.551 2.551s-2.551-1.093-2.551-2.551c0-1.457 1.093-2.551 2.551-2.551zm-11.479 0c1.458 0 2.551 1.093 2.551 2.551 0 1.458-1.093 2.551-2.551 2.551s-2.551-1.093-2.551-2.551c0-1.457 1.093-2.551 2.551-2.551zm-11.479 0c1.458 0 2.551 1.093 2.551 2.551 0 1.458-1.093 2.551-2.551 2.551-1.458 0-2.551-1.093-2.551-2.551 0-1.457 1.093-2.551 2.551-2.551zm-11.479 0c1.458 0 2.551 1.093 2.551 2.551 0 1.458-1.093 2.551-2.551 2.551-1.458 0-2.551-1.093-2.551-2.551 0-1.457 1.093-2.551 2.551-2.551zm-11.479 0c1.458 0 2.551 1.093 2.551 2.551 0 1.458-1.093 2.551-2.551 2.551-1.458 0-2.551-1.093-2.551-2.551 0-1.457 1.093-2.551 2.551-2.551zm-11.479 0c1.458 0 2.551 1.093 2.551 2.551 0 1.458-1.093 2.551-2.551 2.551-1.458 0-2.551-1.093-2.551-2.551 0-1.457 1.093-2.551 2.551-2.551z" fill="#fff"/><path d="M441.851 170.727h6.924l10.75 17.856-10.75 17.856h-6.924l10.75-17.856-10.75-17.856zm-371.702 0h-6.924l-10.75 17.856 10.75 17.856h6.924l-10.75-17.856 10.75-17.856z" fill="#c6cbd6"/><path d="M156.88 190.406h7.47c.364 0 .547.182.547.547 0 .364-.182.547-.547.547h-7.47c-.364 0-.547-.182-.547-.547 0-.365.182-.547.547-.547z" fill="#fff"/><path d="M398.121 158.155s8.928 6.559 10.204 14.394c.729 4.737.729 7.653.547 9.293-7.106 3.28-19.496 9.11-21.683 11.297-6.559 6.742-18.221 34.255-22.958 35.712-4.191 1.275-31.522.547-31.522.547s-5.284 0-6.377-1.093c-.364-2.369 8.199-2.733 8.199-2.733l-.364-4.373c-.182-1.64 4.737-4.373 6.195-4.191 0 0 4.373 10.932 13.301 7.47l-8.382-10.932c.182-.182.182-.364.182-.364l4.737-8.199s1.458-2.369 8.382 2.733c6.924 5.102 9.475 7.653 9.475 7.653l8.564-13.848s3.644-21.5 10.021-32.433c6.559-10.932 11.297-10.75 11.297-10.75l.182-.183z" fill="#ffe45e"/><path d="M408.871 181.842c-.182 1.093-.364 1.458-.364 1.458s-2.004 3.098-4.92 19.678c-2.915 16.763-1.822 28.424-1.822 28.424h-5.284l2.004-39.903c-2.915.182-7.288 1.275-10.204 4.555-9.839 10.75-17.674 34.619-24.233 35.712-.547.182-3.644.182-4.555.182H349.29c-8.017-.182-25.509-.364-22.958-3.644 1.093 1.093 6.377 1.093 6.377 1.093s27.513.729 31.522-.547c4.737-1.458 16.399-28.789 22.958-35.712 2.186-2.186 14.394-8.016 21.682-11.296z" fill="#c6cbd6"/><g fill="#ff7069"><path d="M350.93 204.436c1.275-.182 3.826 0 7.653 2.915 6.924 5.102 9.475 7.653 9.475 7.653s-1.093 1.458-8.199-2.186c-4.92-2.551-7.835-6.559-8.928-8.564v.182zM340.362 216.826c1.458 3.644 5.102 7.835 9.293 8.199-3.098-3.28-7.107-8.564-9.293-8.199zM105.498 182.024h49.196c5.648 0 9.475 3.462 10.386 7.653l7.47 38.081c.729 4.191-4.737 7.653-10.386 7.653H98.027c-5.648 0-11.115-3.462-10.386-7.653l7.47-38.081c.73-4.191 4.738-7.653 10.387-7.653z"/></g><path d="M166.537 197.512l2.004 10.021c-1.093 0-2.004-.182-3.098-.547-8.564-3.462-20.043-.911-20.589 6.013s1.458 10.021.729 12.208h-30.976c-.729-2.004 1.275-5.102.729-12.208-.547-6.924-12.026-9.475-20.589-6.013-1.093.364-2.004.547-3.098.547l2.004-10.021 36.441.364 36.443-.364z" fill="#ffe45e"/><path d="M123.9 221.199h12.39v4.92c0 1.822-1.458 3.462-3.462 3.462h-5.648c-1.822 0-3.462-1.458-3.462-3.462v-4.92h.182z" fill="#fff"/><path d="M116.248 151.231c-2.915 5.102-6.013 28.789-6.013 28.789h4.373s-.182-18.767 4.191-27.878c3.098-6.195 7.106-8.928 11.115-8.746 4.191 0 8.017 2.551 11.115 8.746 4.373 8.928 4.191 27.878 4.191 27.878h4.373s-3.098-23.505-6.013-28.789c-2.733-6.195-8.199-9.657-13.848-9.657-5.648-.182-11.115 3.462-13.848 9.657h.364z" fill="#c6cbd6"/><path d="M109.506 178.927h5.831v14.759h-5.831v-14.759zm34.984 0h5.831v14.759h-5.831v-14.759z" fill="#ffe45e"/><path d="M108.231 190.588h.364v.911c-.182.182-.364.364-.364.547v2.186c0 .364.364.729.729.729h7.106c.364 0 .729-.364.729-.729v-2.186c0-.364-.364-.729-.729-.729v-.729h.729c.547 0 .911.364.911.911v3.098c0 .547-.364.911-.911.911h-8.381c-.547 0-.911-.364-.911-.911v-3.098c0-.547.364-.911.911-.911h-.183zm35.165 0h.364v.911c-.182.182-.364.364-.364.547v2.186c0 .364.364.729.729.729h7.106c.364 0 .729-.364.729-.729v-2.186c0-.364-.364-.729-.729-.729v-.729h.729c.547 0 .911.364.911.911v3.098c0 .547-.364.911-.911.911h-8.382c-.547 0-.911-.364-.911-.911v-3.098c0-.547.364-.911.911-.911h-.182z" fill="#fff"/><g fill="#ecf0f1"><circle cx="130.095" cy="226.665" r="1.822"/><path d="M122.989 221.927h14.03v-1.093h-14.03zM58.488 109.87h395.206v1.64H58.488z"/></g><path d="M239.055 264.017h28.789c4.009 0 7.288 3.28 7.288 7.288 0 4.009-3.28 7.288-7.288 7.288h-28.789c-4.009 0-7.288-3.28-7.288-7.288 0-4.008 3.279-7.288 7.288-7.288z" fill="#ff7069"/></svg>
