<?xml version="1.0" encoding="iso-8859-1"?>
<!-- Generator: Adobe Illustrator 19.0.0, SVG Export Plug-In . SVG Version: 6.00 Build 0)  -->
<svg version="1.1" id="Layer_1" xmlns="http://www.w3.org/2000/svg" xmlns:xlink="http://www.w3.org/1999/xlink" x="0px" y="0px"
	 viewBox="0 0 512 512" style="enable-background:new 0 0 512 512;" xml:space="preserve">
<circle style="fill:#BDFBFD;" cx="256" cy="256" r="256"/>
<path style="fill:#00E4ED;" d="M106.882,359.236l152.719,152.719c138.523-1.914,250.44-113.831,252.354-252.354L405.118,152.764
	L106.882,359.236z"/>
<path style="fill:#FFFFFF;" d="M106.882,359.236c0,0,70.446,42.637,160.589,0s137.647,0,137.647,0V152.764
	c0,0-47.506-42.637-137.647,0s-160.589,0-160.589,0L106.882,359.236L106.882,359.236z"/>
<path style="fill:#E6F3FF;" d="M267.471,152.764c-3.862,1.827-7.685,3.486-11.469,5.01v206.47c3.786-1.524,7.608-3.182,11.469-5.01
	c90.143-42.637,137.647,0,137.647,0v-206.47C405.118,152.764,357.612,110.127,267.471,152.764z"/>
<path style="fill:#D62D2A;" d="M325.03,135.03v206.47c52.676-6.853,80.087,17.736,80.087,17.736V152.764
	C405.118,152.764,377.706,128.178,325.03,135.03z"/>
<path style="fill:#72BD39;" d="M106.882,152.764v206.47c0,0,35.295,21.352,87.883,18.718v-206.47
	C142.177,174.118,106.882,152.764,106.882,152.764z"/>
<circle style="fill:#9A421C;" cx="256" cy="256" r="32.754"/>
<path style="fill:#94252C;" d="M288.754,256c0-18.089-14.664-32.754-32.754-32.754v65.508
	C274.091,288.754,288.754,274.089,288.754,256z"/>
<g>
</g>
<g>
</g>
<g>
</g>
<g>
</g>
<g>
</g>
<g>
</g>
<g>
</g>
<g>
</g>
<g>
</g>
<g>
</g>
<g>
</g>
<g>
</g>
<g>
</g>
<g>
</g>
<g>
</g>
</svg>
