<svg xmlns="http://www.w3.org/2000/svg" viewBox="0 0 280.036 280.036"><path d="M0 87.514v167.001l.088.07c.438 14.124 11.945 25.447 26.165 25.447h26.253V87.514H0z" fill="#ccd0d2"/><path d="M52.505.005v253.766c0 14.5-11.761 26.253-26.253 26.253H253.59l.018-.017.184.017c14.465 0 26.218-11.717 26.244-26.191V.005H52.505z" fill="#e4e7e7"/><path d="M78.758 96.265v17.502h175.017V96.265H78.758zm0 52.505h175.017v-17.502H78.758v17.502zm0 35.003h175.017v-17.502H78.758v17.502zm0 35.004h131.263v-17.502H78.758v17.502z" fill="#b6b9b9"/><path d="M109.526 26.599c-2.73 0-4.769 1.654-4.769 4.629v22.446h-.131L87.447 28.559c-.831-1.068-2.8-1.96-4.008-1.96-2.739 0-4.778 1.654-4.778 4.629v33.735c0 2.975 2.03 4.629 4.778 4.629 2.73 0 4.769-1.654 4.769-4.629v-22.14h.131l17.178 24.817c.893 1.076 2.8 1.969 4.008 1.969 2.739 0 4.778-1.654 4.778-4.629V31.228c.001-2.966-2.038-4.629-4.777-4.629zm34.093 34.461H131.84v-9.04h10.44c3.054 0 4.647-2.074 4.647-4.095 0-2.083-1.531-4.104-4.647-4.104h-10.44v-8.663h11.201c2.984 0 4.524-2.074 4.524-4.104 0-2.074-1.47-4.095-4.524-4.095h-15.795c-3.369 0-4.962 2.196-4.962 5.163v32.676c0 2.669 2.1 4.445 4.909 4.445h16.425c2.993 0 4.533-2.065 4.533-4.095.001-2.075-1.469-4.088-4.532-4.088zm66.2-34.461c-3.072 0-4.533 1.654-5.093 4.27l-5.417 25.255h-.123L190.9 30.1c-.7-2.135-2.599-3.5-4.953-3.5s-4.253 1.365-4.953 3.5l-8.287 26.025h-.123l-5.417-25.255c-.569-2.617-2.03-4.27-5.093-4.27-2.8 0-4.533 2.013-4.533 3.929l.254 2.013 8.086 32.422c.63 2.494 2.73 4.629 6.309 4.629 3.115 0 5.539-1.899 6.309-4.34l7.394-22.918h.123l7.377 22.918c.77 2.441 3.177 4.34 6.309 4.34 3.57 0 5.653-2.135 6.309-4.629l8.086-32.422.254-2.013c-.025-1.908-1.74-3.93-4.532-3.93zm22.639 12.059c0-2.494 2.477-3.85 5.233-3.85 3.833 0 5.854 1.776 8.462 1.776 2.617 0 4.27-2.083 4.27-4.393 0-4.699-8.926-5.951-12.496-5.951-8.462 0-15.778 5.172-15.778 13.485 0 13.783 21.265 9.565 21.265 16.583 0 2.905-2.293 5.102-6.493 5.102-4.139 0-7.71-2.319-10.702-2.319-2.617 0-4.27 1.899-4.27 4.218 0 5.592 10.58 6.651 15.489 6.651 8.786 0 16.294-5.286 16.294-13.774-.001-15.332-21.274-11.411-21.274-17.528z" fill="#9fa1a1"/></svg>
