<svg xmlns="http://www.w3.org/2000/svg" viewBox="0 0 512 512"><circle fill="#F7D4E0" cx="256" cy="256" r="256"/><g fill="#fff"><path d="M423.2 280H240c-8.8 0-16.8-7.2-16.8-16.8v-116c0-8.8 7.2-16.8 16.8-16.8h183.2c8.8 0 16.8 7.2 16.8 16.8V264c0 8.8-7.2 16-16.8 16z"/><path d="M389.6 330.4V264h-83.2z"/></g><g fill="#FD7AC0"><path d="M88.8 364H272c8.8 0 16.8-7.2 16.8-16.8V230.4c0-8.8-7.2-16.8-16.8-16.8H88.8c-8.8 0-16.8 7.2-16.8 16.8v116.8c0 8.8 7.2 16.8 16.8 16.8z"/><path d="M122.4 413.6v-66.4h83.2z"/></g><path fill="#FD7AC0" d="M323.2 180H340v16.8h-16.8zM289.6 180h16.8v16.8h-16.8zM256.8 180h16.8v16.8h-16.8zM356.8 180h16.8v16.8h-16.8zM389.6 180h16.8v16.8h-16.8zM323.2 213.6H340v16.8h-16.8zM356.8 213.6h16.8v16.8h-16.8zM389.6 213.6h16.8v16.8h-16.8z"/><g fill="#fff"><path d="M105.6 306.4c2.4 1.6 7.2 3.2 11.2 3.2 6.4 0 9.6-3.2 9.6-7.2s-2.4-6.4-8.8-8.8c-8.8-3.2-12.8-8-12.8-13.6 0-8 6.4-14.4 16.8-14.4 4.8 0 9.6 1.6 12 3.2l-2.4 6.4c-1.6-1.6-5.6-3.2-9.6-3.2-4.8 0-8 3.2-8 6.4 0 4 3.2 5.6 8.8 8 8.8 3.2 12.8 7.2 12.8 14.4 0 8.8-6.4 14.4-18.4 14.4-5.6 0-10.4-1.6-13.6-3.2l2.4-5.6zM147.2 280v-12.8h8v8c2.4-4.8 7.2-8.8 15.2-8.8 6.4 0 11.2 4 13.6 9.6 1.6-2.4 3.2-4.8 5.6-6.4 3.2-2.4 6.4-3.2 10.4-3.2 6.4 0 16 4 16 20.8V316h-8.8v-28c0-9.6-3.2-15.2-10.4-15.2-4.8 0-8.8 4-10.4 8 0 1.6-.8 3.2-.8 4v29.6h-8.8v-28.8c0-8-3.2-13.6-10.4-13.6-5.6 0-9.6 4-11.2 8.8-.8 1.6-.8 2.4-.8 4v29.6h-8.8V280h1.6zM228.8 306.4c2.4 1.6 7.2 3.2 12 3.2 6.4 0 9.6-3.2 9.6-7.2s-2.4-6.4-8.8-8.8c-8.8-3.2-12.8-8-12.8-13.6 0-8 6.4-14.4 16.8-14.4 4.8 0 9.6 1.6 12 3.2l-2.4 6.4c-1.6-1.6-5.6-3.2-9.6-3.2-4.8 0-8 3.2-8 6.4 0 4 3.2 5.6 8.8 8 8 3.2 12.8 7.2 12.8 14.4 0 8.8-6.4 14.4-18.4 14.4-5.6 0-10.4-1.6-13.6-3.2l1.6-5.6z"/></g></svg>
