<?xml version="1.0" encoding="iso-8859-1"?>
<!-- Generator: Adobe Illustrator 19.0.0, SVG Export Plug-In . SVG Version: 6.00 Build 0)  -->
<svg version="1.1" id="Layer_1" xmlns="http://www.w3.org/2000/svg" xmlns:xlink="http://www.w3.org/1999/xlink" x="0px" y="0px"
	 viewBox="0 0 512 512" style="enable-background:new 0 0 512 512;" xml:space="preserve">
<path style="fill:#FFE356;" d="M256,0c141.4,0,256,114.6,256,256S397.4,512,256,512S0,397.4,0,256S114.6,0,256,0z"/>
<path style="fill:#5D718F;" d="M166,78h180c2.8,0,5.1,2.3,5.1,5.1v345.8c0,2.8-2.3,5.1-5.1,5.1H166c-2.8,0-5.1-2.3-5.1-5.1V83.1
	C160.8,80.3,163.2,78,166,78z"/>
<path style="fill:#FFFFFF;" d="M173.9,126h164.2c2.2,0,4,1.8,4,4v252c0,2.2-1.8,4-4,4H173.9c-2.2,0-4-1.8-4-4V130
	C169.9,127.8,171.7,126,173.9,126z"/>
<g>
	<path style="fill:#8597B1;" d="M212.8,100h86.4c2,0,3.6,1.6,3.6,3.6l0,0c0,2-1.6,3.6-3.6,3.6h-86.4c-2,0-3.6-1.6-3.6-3.6l0,0
		C209.2,101.6,210.8,100,212.8,100z"/>
	<circle style="fill:#8597B1;" cx="255.3" cy="411.1" r="11.9"/>
	<circle style="fill:#8597B1;" cx="184.6" cy="103.8" r="4.1"/>
</g>
<g>
	<rect x="242.5" y="304" style="fill:#596366;" width="5.6" height="11.3"/>
	<polygon style="fill:#596366;" points="265,298.3 259.4,298.3 259.4,292.7 253.7,292.7 253.7,298.3 248.1,298.3 248.1,304 
		253.7,303.9 253.7,315.2 259.4,315.2 259.4,309.6 270.7,309.6 270.7,304 265,304 	"/>
	<path style="fill:#596366;" d="M197.3,315.3h38.9l0.6-39.5h-39.5L197.3,315.3L197.3,315.3z M202.9,281.4h28.2v28.2h-28.2V281.4z"/>
	<rect x="282" y="309.6" style="fill:#596366;" width="5.6" height="5.6"/>
	<polygon style="fill:#596366;" points="304.5,315.3 304.5,315.3 310.2,315.3 310.2,309.6 304.5,309.6 	"/>
	<polygon style="fill:#596366;" points="293.3,315.3 293.3,315.3 298.9,315.3 298.9,309.6 293.2,309.6 	"/>
	<rect x="270.7" y="309.6" style="fill:#596366;" width="5.6" height="5.6"/>
	<polygon style="fill:#596366;" points="225.5,208 208.6,208 208.6,225 208.6,225 225.5,225 	"/>
	<rect x="265" y="196.7" style="fill:#596366;" width="5.6" height="11.3"/>
	<rect x="242.5" y="202.4" style="fill:#596366;" width="5.6" height="11.3"/>
	<path style="fill:#596366;" d="M236.8,196.7h-39.5v39.5h39.5V196.7z M231.2,230.6H203v-28.2h28.2V230.6z"/>
	<polygon style="fill:#596366;" points="208.6,304 208.6,304 225.5,304 225.5,287.1 208.6,287.1 	"/>
	<polygon style="fill:#596366;" points="202.9,270.1 202.9,264.5 208.6,264.5 208.6,270.1 214.2,270.1 214.2,258.8 197.3,258.8 
		197.3,270.1 197.3,270.1 	"/>
	<rect x="197.3" y="241.9" style="fill:#596366;" width="11.3" height="11.3"/>
	<rect x="287.6" y="208" style="fill:#596366;" width="16.9" height="16.9"/>
	<rect x="265" y="230.6" style="fill:#596366;" width="5.6" height="5.6"/>
	<rect x="242.5" y="292.7" style="fill:#596366;" width="5.6" height="5.6"/>
	<path style="fill:#596366;" d="M310.2,241.9h-11.3v5.6h5.6v5.6h-11.3v-11.3h-16.9v5.6h-5.6v-5.6h-17l0.1,11.3h-5.6v-5.6h-5.6v-5.6
		h5.6v-11.3h5.6v5.6h5.6V225h11.3v-11.3H265v5.6h-22.6v22.6h-11.3v5.6h-11.3v5.6h11.3v5.6h5.6v5.6l0,0h5.6v16.9h5.6v-5.6h5.6v5.6
		h-5.6v5.6h11.3v-5.6h11.3v-5.6h-11.3V270h-11.3v-5.6h5.6v-5.6H265v5.6h11.3v5.6h-5.6v5.6h5.6V287H265v5.6h5.6V304h11.3v-5.6h5.6
		v5.6h5.6v-5.6h5.6v5.6h5.6v-5.6h5.6v5.6h5.6v-11.3h-5.6v-16.9h-5.6v-5.6h-5.6v5.6h-11.3v5.6H282v-16.9h16.9v-5.6h5.6v5.6h11.3
		v-16.9h-5.6L310.2,241.9z M236.8,258.8L236.8,258.8v-5.6h-5.6v-5.6h5.6v5.6h5.6v5.6H236.8z M248.1,264.5h-5.6v-5.6h5.6V264.5z
		 M276.3,258.8H265v-11.3h5.6l0,0v5.6h5.6v5.7H276.3z M310.2,258.8h-5.6v-5.6h5.6V258.8z"/>
	<path style="fill:#596366;" d="M287.6,225L287.6,225L287.6,225z"/>
	<path style="fill:#596366;" d="M276.3,196.8v39.5h39.5v-39.5H276.3z M310.2,230.6H282v-28.2h28.2V230.6z"/>
	<path style="fill:#596366;" d="M219.9,247.5L219.9,247.5L219.9,247.5z"/>
	<rect x="214.2" y="241.9" style="fill:#596366;" width="5.6" height="5.6"/>
	<rect x="231.2" y="264.5" style="fill:#596366;" width="5.6" height="5.6"/>
	<polygon style="fill:#596366;" points="259.4,208 259.4,196.7 253.7,196.7 253.7,213.7 265,213.7 265,208 	"/>
	<polygon style="fill:#596366;" points="259.4,270.1 265,270.1 265,264.5 259.4,264.5 	"/>
	<path style="fill:#596366;" d="M259.4,270.1L259.4,270.1L259.4,270.1z"/>
</g>
<path style="fill:#FF7069;" d="M184.9,182h24.5v5.7h-21.7v21.7H182v-24.5V182H184.9L184.9,182z M302.6,182h24.5h2.9v2.9v24.5h-5.7
	v-21.7h-21.7L302.6,182L302.6,182z M330,302.6v24.5v2.9h-2.9h-24.5v-5.7h21.7v-21.7L330,302.6L330,302.6z M209.4,330h-24.5H182v-2.9
	v-24.5h5.7v21.7h21.7V330L209.4,330z"/>
<g>
</g>
<g>
</g>
<g>
</g>
<g>
</g>
<g>
</g>
<g>
</g>
<g>
</g>
<g>
</g>
<g>
</g>
<g>
</g>
<g>
</g>
<g>
</g>
<g>
</g>
<g>
</g>
<g>
</g>
</svg>
