<svg xmlns="http://www.w3.org/2000/svg" viewBox="0 0 512 512"><g transform="matrix(-1 0 0 1 512 0)"><circle cx="256" cy="256" r="256" fill="#efc84a"/><path d="M228.861 154.539l-30.87-30.87c-12.274-12.274-32.357-12.274-44.633 0L142.2 134.827l-7.438 7.439-11.158 11.158c-12.273 12.273-12.273 32.358 0 44.632l30.871 30.871c12.273 12.274 32.358 12.274 44.632 0l11.158-11.158 7.439-7.438 11.158-11.158c12.273-12.276 12.273-32.359-.001-44.634z" fill="#e27676"/><path d="M210.265 217.768l7.439-7.438a31.534 31.534 0 01-4.036 3.401 31.723 31.723 0 01-3.403 4.037zM142.2 134.827l-7.438 7.439a31.564 31.564 0 014.038-3.401 31.406 31.406 0 013.4-4.038z" fill="#e27676"/><path fill="#ecf0f0" d="M254.527 173.508l-81.08 81.08-39.425-39.425 81.08-81.08z"/><path fill="#fbffff" d="M256.016 160.119l-95.586 95.585-5.58-5.58 95.586-95.585zm-11.16-11.158l-95.586 95.587-5.579-5.578 95.587-95.587zm-11.157-11.159l-95.587 95.587-5.58-5.579 95.588-95.587z"/><path fill="#e3cb8f" d="M386.562 312.239l-19.712-19.713-37.195 37.195-37.193 37.193 19.713 19.712 85.297 10.911z"/><path fill="#5c5c5c" d="M394.53 374.542l-9.045.516-.035.035-10.418 10.425-.455 9.09 22.895 2.929z"/><path fill="#ecf0f0" d="M257.872 183.55l-18.596 18.597-18.596 18.596-18.598 18.598-18.597 18.597 128.69 128.688 5.207-31.986 31.986-5.206 5.207-31.988 31.987-5.207z"/><path fill="#45b39c" d="M251.179 176.856l-18.597 18.597-18.599 18.596-18.596 18.596-18.597 18.598 128.689 128.689 5.208-31.988 31.986-5.206 5.207-31.987 31.986-5.205z"/><path d="M179.396 142.266L347.88 310.751l6.695 6.695 42.896 80.09-10.91-85.297-67.692-67.691-67.275-67.275 2.931-3.764-5.95-5.951 7.439-7.439-5.58-5.58-7.438 7.439-5.58-5.578 7.439-7.44-5.578-5.578-7.439 7.439-5.578-5.58 7.438-7.438-5.578-5.58-7.439 7.44-5.579-5.58-3.347 3.347-13.762-13.761c-12.274-12.274-32.357-12.274-44.633 0l-11.16 11.158a31.46 31.46 0 00-3.4 4.038c12.304-8.735 29.587-7.605 40.596 3.401zM317.382 354.64l-6.695-6.695-115.639-115.637c1.421-1.005-52.848-52.848-52.848-52.848-11.005-11.007-12.135-28.291-3.4-40.595a31.564 31.564 0 00-4.038 3.401l-11.158 11.158c-12.273 12.273-12.273 32.358 0 44.632l13.762 13.762-3.347 3.347 5.578 5.578-7.066 7.068 5.58 5.579 7.066-7.066 5.578 5.579-7.066 7.066 5.58 5.58 7.066-7.066 5.578 5.578-7.066 7.066 5.578 5.58 7.066-7.067 5.952 5.951 3.347-3.347 6.695 6.694 128.689 128.689 85.297 10.911-80.089-42.898z" opacity=".3" fill="#5d5d5d"/></g></svg>
